<?xml version="1.0" encoding="iso-8859-1"?>
<!-- Uploaded to: SVG Repo, www.svgrepo.com, Generator: SVG Repo Mixer Tools -->
<svg height="800px" width="800px" version="1.1" id="Layer_1" xmlns="http://www.w3.org/2000/svg" xmlns:xlink="http://www.w3.org/1999/xlink" 
	 viewBox="0 0 512 512" xml:space="preserve">
<circle style="fill:#FEE187;" cx="256" cy="256" r="256"/>
<path style="fill:#FFC61B;" d="M346.898,495.373c67.044-25.474,120.615-78.288,147.075-144.841l-75.35-75.35l-20.992,4.074
	l-1.707-1.707l-31.732-0.279L237.899,151.264l-28.444,2.195v-2.195l-93.091,13.369v95.282l15.312,15.312l-5.794-1.343
	L346.898,495.373z"/>
<path style="fill:#43739B;" d="M415.511,268.64l-56.889-56.889c-4.037-4.041-10.59-4.041-14.626,0
	c-4.041,4.039-4.041,10.588,0,14.626l38.462,38.464H160.334c-19.968,0-36.212-16.244-36.212-36.212V197.82
	c0-19.968,16.244-36.212,36.212-36.212h67.222c5.711,0,10.343-4.632,10.343-10.343s-4.632-10.343-10.343-10.343h-67.222
	c-31.373,0-56.899,25.526-56.899,56.899v30.808c0,31.373,25.526,56.899,56.899,56.899h223.663l-40,40.001
	c-4.041,4.039-4.041,10.588,0,14.626c2.019,2.02,4.667,3.031,7.313,3.031s5.294-1.01,7.313-3.031l56.889-56.889
	C419.552,279.228,419.552,272.679,415.511,268.64z"/>
</svg>