<?xml version="1.0" encoding="iso-8859-1"?>
<!-- Uploaded to: SVG Repo, www.svgrepo.com, Generator: SVG Repo Mixer Tools -->
<svg height="800px" width="800px" version="1.1" id="Layer_1" xmlns="http://www.w3.org/2000/svg" xmlns:xlink="http://www.w3.org/1999/xlink" 
	 viewBox="0 0 512 512" xml:space="preserve">
<path style="fill:#003C61;" d="M437.02,74.98C388.667,26.628,324.25,0,255.87,0S123.333,26.628,74.98,74.98
	C26.628,123.333,0,187.62,0,256s26.628,132.667,74.98,181.02C123.333,485.372,187.49,512,255.87,512s132.797-26.628,181.15-74.98
	C485.372,388.667,512,324.38,512,256S485.372,123.333,437.02,74.98z"/>
<path style="fill:#0066A6;" d="M255.87,0.003C187.58,0.067,123.275,26.686,74.98,74.98C26.628,123.333,0,187.62,0,256
	s26.628,132.667,74.98,181.02c48.295,48.294,112.6,74.915,180.89,74.978V0.003z"/>
<path style="fill:#005A95;" d="M398.454,113.546c-38.051-38.052-88.772-59.007-142.584-59.007s-104.273,20.955-142.325,59.007
	C75.494,151.597,54.539,202.188,54.539,256s20.955,104.403,59.007,142.454c38.05,38.052,88.511,59.007,142.324,59.007
	s104.534-20.955,142.584-59.007c38.052-38.051,59.007-88.642,59.007-142.454S436.506,151.597,398.454,113.546z"/>
<path style="fill:#31AAEF;" d="M255.87,54.542c-53.721,0.063-104.331,21.01-142.325,59.004
	C75.494,151.597,54.539,202.188,54.539,256s20.955,104.403,59.006,142.454c37.994,37.993,88.603,58.94,142.325,59.004V54.542z"/>
<path style="fill:#E4F3F6;" d="M221.924,377.679c-9.091,0-18.184-3.468-25.121-10.406c-13.874-13.874-13.874-36.369,0-50.243
	L257.834,256l-61.032-61.032c-13.874-13.874-13.874-36.369,0-50.243s36.369-13.874,50.242,0l86.152,86.152
	c13.874,13.874,13.874,36.369,0,50.243l-86.152,86.152C240.108,374.211,231.016,377.679,221.924,377.679z"/>
<path style="fill:#79C6BF;" d="M256,153.682v100.484l1.833,1.834L256,257.834v100.484l77.196-77.197
	c13.874-13.874,13.874-36.369,0-50.243L256,153.682z"/>
</svg>