<?xml version="1.0" encoding="iso-8859-1"?>
<!-- Uploaded to: SVG Repo, www.svgrepo.com, Generator: SVG Repo Mixer Tools -->
<svg height="800px" width="800px" version="1.1" id="Layer_1" xmlns="http://www.w3.org/2000/svg" xmlns:xlink="http://www.w3.org/1999/xlink" 
	 viewBox="0 0 512 512" xml:space="preserve">
<path style="fill:#1E0478;" d="M477.607,128.048c34.176,59.199,43.25,128.165,25.569,194.186
	c-17.694,66.021-60.039,121.196-119.224,155.373c-39.439,22.771-83.196,34.39-127.539,34.39c-22.225,0-44.596-2.918-66.647-8.821
	c-66.021-17.694-121.196-60.039-155.373-119.224C0.217,324.753-8.857,255.787,8.824,189.766
	C26.519,123.745,68.863,68.569,128.048,34.393c39.439-22.771,83.196-34.39,127.552-34.39c22.225,0,44.596,2.918,66.634,8.821
	C388.256,26.519,443.431,68.863,477.607,128.048z M477.434,315.333c15.842-59.146,7.715-120.93-22.904-173.96
	S374.478,50.422,315.333,34.566c-59.146-15.842-120.93-7.715-173.96,22.904S50.422,137.522,34.566,196.668
	c-15.842,59.146-7.715,120.93,22.904,173.96s80.051,90.951,139.197,106.806c59.146,15.842,120.93,7.715,173.96-22.904
	S461.578,374.478,477.434,315.333z"/>
<path style="fill:#9B8CCC;" d="M454.53,141.373c30.619,53.03,38.747,114.814,22.904,173.96
	c-15.856,59.146-53.776,108.578-106.806,139.197s-114.814,38.747-173.96,22.904C137.522,461.578,88.089,423.658,57.47,370.628
	s-38.747-114.814-22.904-173.96C50.422,137.522,88.343,88.089,141.373,57.47s114.814-38.747,173.96-22.904
	C374.478,50.422,423.911,88.343,454.53,141.373z M377.57,345.498v-178.97c0-7.368-5.969-13.324-13.324-13.324
	c-7.368,0-13.324,5.956-13.324,13.324v178.97c0,7.355,5.956,13.324,13.324,13.324C371.6,358.823,377.57,352.853,377.57,345.498z
	 M324.659,256c0-9.26-4.797-17.561-12.818-22.185l-138.971-80.238c-8.021-4.637-17.601-4.637-25.622,0
	c-8.021,4.623-12.818,12.924-12.818,22.185v160.476c0,9.26,4.797,17.561,12.818,22.185c4.011,2.318,8.408,3.478,12.805,3.478
	c4.41,0,8.807-1.159,12.818-3.478l138.971-80.238C319.863,273.561,324.659,265.26,324.659,256z"/>
<g>
	<path style="fill:#1E0478;" d="M377.57,166.529v178.97c0,7.355-5.969,13.324-13.324,13.324c-7.368,0-13.324-5.969-13.324-13.324
		v-178.97c0-7.368,5.956-13.324,13.324-13.324C371.6,153.204,377.57,159.16,377.57,166.529z"/>
	<path style="fill:#1E0478;" d="M311.842,233.815c8.021,4.623,12.818,12.924,12.818,22.185c0,9.26-4.797,17.561-12.818,22.185
		l-138.971,80.238c-4.011,2.318-8.408,3.478-12.818,3.478c-4.397,0-8.794-1.159-12.804-3.478
		c-8.021-4.623-12.818-12.924-12.818-22.185V175.762c0-9.26,4.797-17.561,12.818-22.185c8.021-4.637,17.601-4.637,25.622,0
		L311.842,233.815z M161.079,334.466L296.985,256l-135.906-78.466L161.079,334.466L161.079,334.466z"/>
</g>
<polygon style="fill:#94E7EF;" points="296.985,256 161.079,334.466 161.079,177.534 "/>
</svg>